<svg version="1.1" baseProfile="full" width="1440" height="800" xmlns="http://www.w3.org/2000/svg">
  <rect id="A" x="30" y="30" fill="#ff6cc4" stroke="#c30d23" stroke-width="4" width="80" height="80" />
  <rect id="B" x="140" y="30" fill="#ff6cc4" width="80" height="80" />
  <circle id="oval" stroke="#1D36C6" stroke-width="6" fill="#BD10E0" cx="260" cy="150" r="80" />
  <ellipse id="Oval" fill="#E54C4C" cx="104" cy="230" rx="55" ry="25"></ellipse>
  <polygon id="Star" stroke="#979797" fill="#D8D8D8" points="54.5 359 36.5725498 369.506578 39.9963881 347.253289 25.4927763 331.493422 45.5362749 328.246711 54.5 308 63.4637251 328.246711 83.5072237 331.493422 69.0036119 347.253289 72.4274502 369.506578"></polygon>
  <polygon id="Polygon" stroke="#979797" fill="#D8D8D8" points="166.5 319 197.409337 341.456948 185.603021 377.793052 147.396979 377.793052 135.590663 341.456948"></polygon>
  <polygon id="Triangle" stroke="#979797" fill="#D8D8D8" points="281.5 319 310 372 253 372"></polygon>
  <path d="M7.36328125,456.507812 C21.8267071,446.910815 66.5037904,440.629565 141.394531,437.664062 L302.960938,475.503906 L282.238281,515.175781 L209.734375,538.65625 L222.191406,488.160156 L141.394531,498.050781 L72.9101563,527.65625 L65.2929688,488.160156 C12.2097513,476.655591 -7.10014455,466.10481 7.36328125,456.507812 Z" id="Path-2" stroke="#A13A3A" stroke-width="4"></path>
</svg>
